HIERARCHY
ROOT Hips
{
	OFFSET 0.000000 0.000000 0.000000 
	CHANNELS 6 Xposition Yposition Zposition Zrotation Yrotation Xrotation
	JOINT LeftUpLeg
	{
		OFFSET 1.363060 -1.794630 0.839290 
		CHANNELS 3 Zrotation Yrotation Xrotation
		JOINT LeftLeg
		{
			OFFSET 2.448110 -6.726130 0.000000 
			CHANNELS 3 Zrotation Yrotation Xrotation
			JOINT LeftFoot
			{
				OFFSET 2.562200 -7.039590 0.000000 
				CHANNELS 3 Zrotation Yrotation Xrotation
				JOINT LeftToeBase
				{
					OFFSET 0.157640 -0.433110 2.322550 
					CHANNELS 3 Zrotation Yrotation Xrotation
					End Site
					{
						OFFSET 0.000000 0.000000 0.000000 
					}
				}
			}
		}
	}
	JOINT RightUpLeg
	{
		OFFSET -1.305520 -1.794630 0.839290 
		CHANNELS 3 Zrotation Yrotation Xrotation
		JOINT RightLeg
		{
			OFFSET -2.542530 -6.985550 0.000000 
			CHANNELS 3 Zrotation Yrotation Xrotation
			JOINT RightFoot
			{
				OFFSET -2.568260 -7.056230 0.000000 
				CHANNELS 3 Zrotation Yrotation Xrotation
				JOINT RightToeBase
				{
					OFFSET -0.164730 -0.452590 2.363150 
					CHANNELS 3 Zrotation Yrotation Xrotation
					End Site
					{
						OFFSET 0.000000 0.000000 0.000000 
					}
				}
			}
		}
	}
	JOINT Spine
	{
		OFFSET 0.028270 2.035590 -0.193380 
		CHANNELS 3 Zrotation Yrotation Xrotation
		JOINT Spine1
		{
			OFFSET 0.056720 2.048850 -0.042750 
			CHANNELS 3 Zrotation Yrotation Xrotation
			JOINT Neck1
			{
				OFFSET -0.054170 1.746240 0.172020 
				CHANNELS 3 Zrotation Yrotation Xrotation
				JOINT Head
				{
					OFFSET 0.104070 1.761360 -0.123970 
					CHANNELS 3 Zrotation Yrotation Xrotation
					End Site
					{
						OFFSET 0.000000 0.000000 0.000000 
					}
				}
			}
			JOINT LeftArm
			{
				OFFSET 3.362410 1.200890 -0.311210 
				CHANNELS 3 Zrotation Yrotation Xrotation
				JOINT LeftForeArm
				{
					OFFSET 4.983000 -0.000000 -0.000000 
					CHANNELS 3 Zrotation Yrotation Xrotation
					JOINT LeftHand
					{
						OFFSET 3.483560 -0.000000 -0.000000 
						CHANNELS 3 Zrotation Yrotation Xrotation
						JOINT LeftHandIndex1
						{
							OFFSET 0.715260 -0.000000 -0.000000 
							CHANNELS 3 Zrotation Yrotation Xrotation
							End Site
							{
								OFFSET 0.000000 0.000000 0.000000 
							}
						}
					}
				}
			}
			JOINT RightArm
			{
				OFFSET -3.136600 1.374050 -0.404650 
				CHANNELS 3 Zrotation Yrotation Xrotation
				JOINT RightForeArm
				{
					OFFSET -5.241900 -0.000000 -0.000000 
					CHANNELS 3 Zrotation Yrotation Xrotation
					JOINT RightHand
					{
						OFFSET -3.444170 -0.000000 -0.000000 
						CHANNELS 3 Zrotation Yrotation Xrotation
						JOINT RightHandIndex1
						{
							OFFSET -0.622530 -0.000000 -0.000000 
							CHANNELS 3 Zrotation Yrotation Xrotation
							End Site
							{
								OFFSET 0.000000 0.000000 0.000000 
							}
						}
					}
				}
			}
		}
	}
}
MOTION
Frames: 13
Frame Time: 0.041667
-12.745905 17.109892 -5.407393 178.572867 76.478129 -176.517712 -50.896317 -13.371731 22.468940 -14.442933 -0.507655 4.037488 2.514813 5.855187 -27.762777 11.349700 -18.102000 -63.912000 19.864622 29.798983 -19.196771 12.586281 -3.470490 -1.179022 1.663829 -26.390868 -39.234701 -0.388500 4.002500 -11.083700 1.718643 -4.202963 -5.196296 6.542338 -1.147089 -16.129675 -1.728399 -0.623535 14.716163 -3.545800 -0.322500 12.304800 -87.693349 2.953803 27.606780 28.038980 -40.270700 -10.643434 -0.341687 2.449467 6.021720 -7.125000 0.000000 0.000000 41.627715 19.232949 -16.679495 -147.928327 36.519811 -109.653166 2.436405 0.417262 1.581310 7.125000 0.000000 0.000000 
-12.386219 17.071623 -5.437812 178.710210 75.290243 -176.124126 -50.962229 -13.418771 23.815605 -14.442638 -0.753924 3.905303 2.629608 4.722196 -27.867790 11.133100 -17.999600 -63.212900 19.885917 29.121973 -19.440322 12.351869 -2.667323 -2.987696 1.379483 -24.065001 -38.253027 -0.264000 3.305600 -9.130700 1.781786 -4.548322 -5.273295 6.947277 -1.231772 -16.183215 -1.494456 -0.908503 14.382394 -3.402300 -0.463500 12.066300 -87.952382 3.152278 27.937308 28.660954 -40.804479 -10.956507 -0.348383 2.444845 5.551794 -7.125000 0.000000 0.000000 40.519818 19.193380 -18.614557 -148.156892 36.345279 -109.805083 2.338534 0.497527 0.480134 7.125000 0.000000 0.000000 
-12.013122 17.034663 -5.471175 177.700417 74.072001 -176.848583 -51.114951 -13.053847 24.733656 -14.431989 -0.747960 4.205643 2.588591 4.045884 -27.225585 11.078300 -17.973200 -63.035500 19.391591 28.357961 -20.174842 12.123978 -2.445496 -3.655515 1.159474 -21.512489 -37.023753 -0.086300 1.895200 -5.216100 1.797766 -4.970891 -5.408640 7.295512 -1.331280 -16.427869 -1.400206 -1.231412 14.236243 -3.364600 -0.612000 11.969100 -88.342576 3.727097 27.795801 29.261610 -41.327482 -11.297480 -0.323984 2.436904 5.422009 -7.125000 0.000000 0.000000 39.683843 18.965188 -20.334440 -148.359073 36.201495 -109.915338 2.288605 0.558125 -0.645661 7.125000 0.000000 0.000000 
-11.628360 16.997157 -5.503666 177.011842 72.841654 -177.376070 -51.063609 -12.596230 25.563553 -14.391829 -0.628447 4.772265 2.467676 3.617269 -26.182045 11.107800 -17.987400 -63.131200 19.354742 27.609826 -20.879073 12.132606 -2.765970 -3.156795 1.360380 -21.290505 -34.805979 -0.326800 3.674200 -10.161700 1.805067 -5.365289 -5.528732 7.594473 -1.426357 -16.661328 -1.408037 -1.632553 14.202479 -3.398300 -0.797900 11.959900 -88.754994 4.537355 27.450198 30.016692 -41.930690 -11.669753 -0.387998 2.439006 5.558909 -7.125000 0.000000 0.000000 39.033491 18.668645 -22.135906 -148.462556 36.152069 -109.961509 2.251058 0.608084 -1.558171 7.125000 0.000000 0.000000 
-11.237709 16.962376 -5.537029 177.540526 71.725662 -176.794532 -50.496904 -12.224793 26.505978 -14.305474 -0.525200 5.412267 2.356469 3.235596 -25.207123 11.540300 -18.189500 -64.524000 20.028105 27.016865 -21.194238 12.235351 -3.169331 -2.294525 1.247306 -20.280534 -33.404826 -0.372300 3.919200 -10.849500 1.886048 -5.687793 -5.537470 8.029686 -1.531642 -16.443042 -1.291853 -1.919885 14.073607 -3.317900 -0.961500 11.944700 -89.266002 5.039979 26.916226 30.718422 -42.477106 -12.012486 -0.398503 2.448421 5.829442 -7.125000 0.000000 0.000000 38.206344 19.064146 -24.048374 -148.208761 36.416888 -109.795315 2.210591 0.620922 -1.926451 7.125000 0.000000 0.000000 
-10.835938 16.935228 -5.570718 178.432686 70.787281 -175.862286 -49.691397 -11.913118 27.439632 -14.206986 -0.427338 6.077354 2.195035 3.312968 -24.065830 11.679900 -18.252000 -64.970500 21.013390 26.641431 -21.525420 12.418938 -4.006256 -0.484358 0.980664 -18.665548 -31.941170 -0.318500 3.627900 -10.032000 1.961177 -5.912804 -5.616897 8.396331 -1.570984 -16.573534 -1.110011 -2.197854 13.867652 -3.178800 -1.114500 11.821400 -89.836269 5.824958 26.239153 31.247960 -42.902430 -12.307498 -0.354912 2.452204 6.269846 -7.125000 0.000000 0.000000 37.571706 19.778260 -25.552654 -147.587927 36.978370 -109.403436 2.174271 0.609639 -1.785134 7.125000 0.000000 0.000000 
-10.410181 16.917784 -5.601028 178.778565 70.079472 -175.617977 -48.939513 -11.448862 28.334969 -14.089918 -0.271215 6.856732 2.013654 3.222123 -22.767081 11.823000 -18.314800 -65.426800 23.890553 22.973250 -21.934808 12.664324 -5.230774 2.638063 1.072049 -17.643687 -25.077275 -1.729300 8.277900 -23.561300 2.021103 -6.081674 -5.719994 8.830792 -1.517863 -16.781062 -1.028286 -2.497104 13.661599 -3.103400 -1.282800 11.678400 -90.307308 6.918076 25.540140 31.767134 -43.333030 -12.634559 -0.309488 2.445499 6.590822 -7.125000 0.000000 0.000000 37.286436 20.756613 -26.598850 -146.702631 37.736546 -108.841609 2.141081 0.586156 -1.427161 7.125000 0.000000 0.000000 
-9.961636 16.907862 -5.628722 178.662135 69.234332 -175.855561 -48.173830 -10.791255 29.248170 -13.952134 -0.087174 7.711602 1.790742 2.952567 -21.184926 11.980700 -18.382500 -65.927600 24.432646 23.726095 -21.129304 12.631893 -5.589610 3.676955 0.770027 -15.507441 -23.171856 -0.578300 4.869500 -13.536600 2.080621 -6.323340 -5.794152 9.323523 -1.518955 -16.838368 -0.942675 -2.687097 13.654865 -3.010600 -1.407300 11.728600 -90.663119 8.073010 24.768292 32.305473 -43.760764 -12.969976 -0.292027 2.437783 6.715151 -7.125000 0.000000 0.000000 37.484852 22.023014 -26.876513 -145.577273 38.651471 -108.112338 2.152502 0.518824 -1.082258 7.125000 0.000000 0.000000 
-9.504260 16.905027 -5.660885 178.908513 68.533013 -175.815105 -47.202073 -10.153423 30.084558 -13.766389 0.172576 8.763259 1.484312 2.971020 -19.143039 12.208400 -18.477400 -66.647800 25.672498 22.977423 -20.712638 12.792055 -6.207153 5.340556 1.278445 -19.057184 -18.749440 -2.511100 9.858100 -28.518300 2.134472 -6.507454 -5.852817 9.715158 -1.512042 -16.848866 -0.847496 -2.690373 13.605565 -2.852400 -1.474100 11.763200 -91.118429 9.011058 23.536024 32.558826 -43.959444 -13.144635 -0.285850 2.445097 6.955239 -7.125000 0.000000 0.000000 38.140137 23.357512 -26.432205 -144.134120 39.753861 -107.176831 2.085913 0.509244 -0.429139 7.125000 0.000000 0.000000 
-9.045794 16.915821 -5.706350 179.714253 68.014985 -175.223604 -45.834601 -9.392608 30.513628 -13.484849 0.593483 10.144857 1.098073 3.310786 -16.638991 12.429600 -18.566400 -67.344100 27.083155 21.220595 -20.668883 12.791216 -7.182370 7.856098 1.152113 -18.357732 -18.260245 -1.592500 7.960000 -22.592700 2.220296 -6.618905 -5.920434 9.841266 -1.518704 -16.877387 -1.027794 -2.890989 13.709257 -3.081900 -1.521700 11.803900 -91.537121 10.331878 22.354027 32.936618 -44.263585 -13.384065 -0.297433 2.451792 6.571517 -7.125000 0.000000 0.000000 39.695372 24.678912 -23.780734 -142.073797 41.236989 -105.745480 2.060725 0.453902 -1.219370 7.125000 0.000000 0.000000 
-8.586892 16.946349 -5.764790 -178.898455 67.632974 -174.033541 -43.968553 -8.474059 30.281146 -13.060987 1.210518 11.900656 0.624967 3.923078 -13.532340 12.568400 -18.620700 -67.779400 28.767086 18.760390 -20.875557 12.628519 -8.313243 10.759426 0.808467 -16.106717 -18.134784 -0.722900 5.432900 -15.147400 2.304399 -6.644406 -6.000945 9.932639 -1.515128 -16.863060 -0.923758 -2.790438 14.033221 -2.956600 -1.497500 12.116500 -92.046286 11.503299 20.999536 33.136738 -44.438651 -13.555738 -0.283751 2.456240 5.805021 -7.125000 0.000000 0.000000 41.334112 26.353262 -20.360738 -138.905218 43.245538 -103.537858 1.910215 0.348467 -1.242921 7.125000 0.000000 0.000000 
-8.131260 16.994213 -5.827263 -176.728197 67.364907 -172.010414 -41.600420 -7.726705 29.452908 -12.454159 1.989702 14.022111 0.096974 4.666664 -9.898215 12.712100 -18.675700 -68.228800 30.849749 16.019735 -20.850569 12.393986 -9.120815 13.062578 0.318917 -12.849702 -18.386074 -0.002400 0.313200 -0.860400 2.408625 -6.544002 -6.091879 10.029113 -1.457922 -16.877761 -0.844877 -2.747427 14.228042 -2.760500 -1.560100 12.351100 -92.619068 12.313791 19.351989 32.839735 -44.278822 -13.499832 -0.222528 2.461116 5.359375 -7.125000 0.000000 0.000000 42.500832 27.879957 -15.185365 -132.485198 46.715275 -98.557066 1.750417 0.072360 -1.328796 7.125000 0.000000 0.000000 
-7.678355 17.056577 -5.885921 -174.388275 67.157039 -169.981529 -38.851726 -6.773997 28.096256 -11.601661 3.017086 16.738331 -0.532598 5.942175 -5.148884 12.814100 -18.714000 -68.547100 33.167510 13.535416 -20.046155 12.215937 -9.425665 14.431228 0.041159 -10.725493 -17.239783 -0.057100 -1.542300 4.242300 2.536617 -6.410243 -6.180855 10.125601 -1.392109 -16.951500 -0.924401 -2.664585 14.494708 -2.851000 -1.487300 12.508400 -92.987974 13.752639 18.134512 33.263903 -44.657397 -13.869927 -0.190592 2.432097 4.761129 -7.125000 0.000000 0.000000 41.402078 29.560744 -9.916113 -120.769030 51.023375 -88.387197 1.366509 -0.243889 -0.569242 7.125000 0.000000 0.000000 
